<svg 
 xmlns="http://www.w3.org/2000/svg"
  xmlns:xlink="http://www.w3.org/1999/xlink"
   width="529px" height="529px">
   <path fill-rule="evenodd"  fill="rgb(0, 0, 0)"
    d="M264.500,-0.000 C410.579,-0.000 529.000,118.421 529.000,264.500 C529.000,410.579 410.579,529.000 264.500,529.000 C118.421,529.000 -0.000,410.579 -0.000,264.500 C-0.000,118.421 118.421,-0.000 264.500,-0.000 Z"/>
    <path fill-rule="evenodd"  fill="rgb(255, 255, 255)"
     d="M339.866,251.560 L457.540,176.369 L457.540,366.675 L339.866,251.560 ZM73.741,161.729 L456.583,161.729 L265.164,284.047 L73.741,161.729 ZM72.280,367.173 L72.606,176.250 L190.458,251.560 L72.280,367.173 ZM265.116,299.266 L265.116,299.325 L265.164,299.296 L265.212,299.325 L265.212,299.266 L330.438,257.584 L443.249,367.943 L87.079,367.943 L199.886,257.584 L265.116,299.266 Z"/>
     </svg>
