<svg 
 xmlns="http://www.w3.org/2000/svg"
  xmlns:xlink="http://www.w3.org/1999/xlink"
   width="534px" height="534px">
   <path fill-rule="evenodd"  fill="rgb(0, 0, 0)"
    d="M264.500,-0.000 C410.579,-0.000 529.000,118.421 529.000,264.500 C529.000,410.579 410.579,529.000 264.500,529.000 C118.421,529.000 -0.000,410.579 -0.000,264.500 C-0.000,118.421 118.421,-0.000 264.500,-0.000 Z"/>
    <path fill-rule="evenodd"  stroke="rgb(64, 64, 64)" stroke-width="10px" stroke-linecap="butt" stroke-linejoin="miter" fill="rgb(255, 255, 255)"
     d="M117.854,252.112 L409.146,252.112 C414.669,252.112 419.146,256.589 419.146,262.112 L419.146,385.000 C419.146,390.523 414.669,395.000 409.146,395.000 L117.854,395.000 C112.331,395.000 107.854,390.523 107.854,385.000 L107.854,262.112 C107.854,256.589 112.331,252.112 117.854,252.112 Z"/>
     <path fill-rule="evenodd"  stroke="rgb(0, 0, 0)" stroke-width="8px" stroke-linecap="butt" stroke-linejoin="miter" fill="rgb(0, 0, 0)"
      d="M355.366,306.172 C374.709,324.941 383.833,358.779 363.421,359.891 C361.671,361.056 330.264,360.753 323.145,353.810 C318.983,349.751 318.112,341.147 316.097,329.484 C299.579,315.184 248.409,314.828 218.428,325.430 C213.050,331.169 213.427,340.857 210.372,351.783 C201.898,360.660 171.051,363.313 163.048,358.878 C159.033,357.363 155.802,357.572 156.000,345.701 C159.022,329.629 167.746,307.379 176.138,306.172 C210.005,291.152 282.560,281.317 355.366,306.172 Z"/>
      <path fill-rule="evenodd"  stroke="rgb(64, 64, 64)" stroke-width="10px" stroke-linecap="butt" stroke-linejoin="miter" fill="rgb(255, 255, 255)"
       d="M172.922,93.000 L354.078,93.000 L354.078,261.000 L172.922,261.000 L172.922,93.000 Z"/>
       <path fill-rule="evenodd"  stroke="rgb(0, 0, 0)" stroke-width="10px" stroke-linecap="butt" stroke-linejoin="miter" fill="rgb(255, 255, 255)"
        d="M210.000,219.000 L210.000,206.000 L317.000,206.000 L317.000,219.000 L210.000,219.000 ZM210.000,169.000 L317.000,169.000 L317.000,182.000 L210.000,182.000 L210.000,169.000 ZM210.000,132.000 L317.000,132.000 L317.000,145.000 L210.000,145.000 L210.000,132.000 Z"/>
        </svg>
