<svg 
 xmlns="http://www.w3.org/2000/svg"
  xmlns:xlink="http://www.w3.org/1999/xlink"
   width="529px" height="529px">
   <path fill-rule="evenodd"  fill="rgb(0, 0, 0)"
    d="M264.500,-0.000 C410.579,-0.000 529.000,118.421 529.000,264.500 C529.000,410.579 410.579,529.000 264.500,529.000 C118.421,529.000 -0.000,410.579 -0.000,264.500 C-0.000,118.421 118.421,-0.000 264.500,-0.000 Z"/>
    <path fill-rule="evenodd"  fill="rgb(255, 255, 255)"
     d="M430.797,203.886 C430.634,197.031 429.110,167.611 414.899,162.158 C385.640,150.941 313.341,141.991 264.438,141.991 C215.528,141.991 143.230,150.941 113.969,162.158 C99.743,167.619 98.234,197.076 98.073,203.905 C97.833,205.896 97.852,207.854 98.191,209.616 L100.972,223.583 C102.449,231.233 109.831,236.228 117.466,234.748 L181.619,222.299 C189.248,220.823 194.236,213.425 192.763,205.779 L189.431,188.531 C195.347,187.705 201.284,186.923 207.160,186.207 L205.244,214.114 C205.244,214.114 109.557,265.221 109.557,284.217 C109.557,303.210 109.557,377.009 109.557,377.009 L264.438,377.009 L419.313,377.009 C419.313,377.009 419.313,302.592 419.313,284.217 C419.313,265.845 323.626,214.114 323.626,214.114 L321.708,186.207 C327.588,186.923 333.522,187.705 339.439,188.531 L336.107,205.779 C334.630,213.425 339.622,220.823 347.249,222.299 L411.404,234.748 C419.037,236.228 426.420,231.233 427.897,223.583 L430.679,209.616 C431.016,207.854 431.039,205.889 430.797,203.886 ZM264.438,181.928 C270.387,181.928 293.191,182.995 299.950,183.856 C299.950,183.734 297.740,211.430 297.687,211.349 L264.438,211.349 L231.183,211.349 L229.123,183.838 C242.020,182.645 254.105,181.928 264.438,181.928 ZM264.440,338.955 C239.736,338.955 219.710,320.291 219.710,297.269 C219.710,274.246 239.736,255.583 264.440,255.583 C289.144,255.583 309.170,274.246 309.170,297.269 C309.170,320.291 289.144,338.955 264.440,338.955 Z"/>
     </svg>
